#Comment line ignore any data following # character 
#Hierarchical Translation and Rotation (.htr) file 
[Header]	
#Header keywords are followed by a single value 
FileType HTR		#Single word string
DataType HTRS		#Translation followed by rotation and scale data
FileVersion 1		#integer
NumSegments 84		#integer
NumFrames 2		#integer
DataFrameRate 30		#integer, data frame rate in this file
EulerRotationOrder ZYX
CalibrationUnits mm
RotationUnits Degrees
GlobalAxisofGravity Y
BoneLengthAxis Y
ScaleFactor 1.00
[SegmentNames&Hierarchy]
#CHILD	PARENT
MASTER GLOBAL
root MASTER
chest root
L_mid_tent01 root
R_mid_tent01 root
spine01 root
Bip01_Neck chest
L_humerus chest
R_humerus chest
weapon_bone chest
Bip01_Head Bip01_Neck
eye_left_bone Bip01_Head
eye_right_bone Bip01_Head
L_forearm L_humerus
L_front_hand L_forearm
L_weapon_bone L_forearm
L_front_hand01_01 L_front_hand
L_front_hand02_01 L_front_hand
L_front_hand03_01 L_front_hand
L_front_hand01_02 L_front_hand01_01
L_front_hand02_02 L_front_hand02_01
L_front_hand03_02 L_front_hand03_01
R_forearm R_humerus
R_front_hand R_forearm
R_weapon_bone R_forearm
R_front_hand01_01 R_front_hand
R_front_hand02_01 R_front_hand
R_front_hand03_01 R_front_hand
R_front_hand01_02 R_front_hand01_01
R_front_hand02_02 R_front_hand02_01
R_front_hand03_02 R_front_hand03_01
null_rope01_connect L_mid_tent01
Rope1_Seg01 null_rope01_connect
Rope1_Seg02 Rope1_Seg01
Rope1_Seg03 Rope1_Seg02
Rope1_Seg04 Rope1_Seg03
Rope1_Seg05 Rope1_Seg04
Rope1_Seg06 Rope1_Seg05
Rope1_Seg07 Rope1_Seg06
Rope1_Seg09 Rope1_Seg07
L_mid_hand01 Rope1_Seg09
L_mid_hand02 Rope1_Seg09
L_mid_hand03 Rope1_Seg09
null_rope02_connect R_mid_tent01
Rope2_Seg01 null_rope02_connect
Rope2_Seg02 Rope2_Seg01
Rope2_Seg03 Rope2_Seg02
Rope2_Seg04 Rope2_Seg03
Rope2_Seg05 Rope2_Seg04
Rope2_Seg06 Rope2_Seg05
Rope2_Seg07 Rope2_Seg06
Rope2_Seg09 Rope2_Seg07
R_mid_hand01 Rope2_Seg09
R_mid_hand02 Rope2_Seg09
R_mid_hand03 Rope2_Seg09
spine02 spine01
spine03 spine02
pelvis spine03
null_rope03_connect pelvis
null_rope04_connect pelvis
Rope3_Seg01 null_rope03_connect
Rope3_Seg02 Rope3_Seg01
Rope3_Seg03 Rope3_Seg02
Rope3_Seg04 Rope3_Seg03
Rope3_Seg05 Rope3_Seg04
Rope3_Seg06 Rope3_Seg05
Rope3_Seg07 Rope3_Seg06
Rope3_Seg08 Rope3_Seg07
Rope3_Seg09 Rope3_Seg08
R_rear_hand01 Rope3_Seg09
R_rear_hand02 Rope3_Seg09
R_rear_hand03 Rope3_Seg09
Rope4_Seg01 null_rope04_connect
Rope4_Seg02 Rope4_Seg01
Rope4_Seg03 Rope4_Seg02
Rope4_Seg04 Rope4_Seg03
Rope4_Seg05 Rope4_Seg04
Rope4_Seg06 Rope4_Seg05
Rope4_Seg07 Rope4_Seg06
Rope4_Seg08 Rope4_Seg07
Rope4_Seg09 Rope4_Seg08
L_rear_hand01 Rope4_Seg09
L_rear_hand02 Rope4_Seg09
L_rear_hand03 Rope4_Seg09
[BasePosition]
#SegmentName Tx, Ty, Tz, Rx, Ry, Rz, BoneLength
MASTER 0.000000 0.000000 0.000000 -90.000000 0.000000 0.000000 10.000000 
root 0.000000 0.000000 0.000000 0.000000 0.000000 0.000000 10.000000 
chest 0.000000 0.000000 0.000000 0.000000 0.000000 0.000000 10.000000 
L_mid_tent01 0.000000 0.000000 0.000000 0.000000 0.000000 0.000000 10.000000 
R_mid_tent01 0.000000 0.000000 0.000000 0.000000 0.000000 0.000000 10.000000 
spine01 0.000000 0.000000 0.000000 0.000000 0.000000 0.000000 10.000000 
Bip01_Neck 0.000000 0.000000 0.000000 0.000000 0.000000 0.000000 10.000000 
L_humerus 0.000000 0.000000 0.000000 0.000000 0.000000 0.000000 10.000000 
R_humerus 0.000000 0.000000 0.000000 0.000000 0.000000 0.000000 10.000000 
weapon_bone 0.000000 0.000000 0.000000 0.000000 0.000000 0.000000 10.000000 
Bip01_Head 0.000000 0.000000 0.000000 0.000000 0.000000 0.000000 10.000000 
eye_left_bone 0.000000 0.000000 0.000000 0.000000 0.000000 0.000000 10.000000 
eye_right_bone 0.000000 0.000000 0.000000 0.000000 0.000000 0.000000 10.000000 
L_forearm 0.000000 0.000000 0.000000 0.000000 0.000000 0.000000 10.000000 
L_front_hand 0.000000 0.000000 0.000000 0.000000 0.000000 0.000000 10.000000 
L_weapon_bone 0.000000 0.000000 0.000000 0.000000 0.000000 0.000000 10.000000 
L_front_hand01_01 0.000000 0.000000 0.000000 0.000000 0.000000 0.000000 10.000000 
L_front_hand02_01 0.000000 0.000000 0.000000 0.000000 0.000000 0.000000 10.000000 
L_front_hand03_01 0.000000 0.000000 0.000000 0.000000 0.000000 0.000000 10.000000 
L_front_hand01_02 0.000000 0.000000 0.000000 0.000000 0.000000 0.000000 10.000000 
L_front_hand02_02 0.000000 0.000000 0.000000 0.000000 0.000000 0.000000 10.000000 
L_front_hand03_02 0.000000 0.000000 0.000000 0.000000 0.000000 0.000000 10.000000 
R_forearm 0.000000 0.000000 0.000000 0.000000 0.000000 0.000000 10.000000 
R_front_hand 0.000000 0.000000 0.000000 0.000000 0.000000 0.000000 10.000000 
R_weapon_bone 0.000000 0.000000 0.000000 0.000000 0.000000 0.000000 10.000000 
R_front_hand01_01 0.000000 0.000000 0.000000 0.000000 0.000000 0.000000 10.000000 
R_front_hand02_01 0.000000 0.000000 0.000000 0.000000 0.000000 0.000000 10.000000 
R_front_hand03_01 0.000000 0.000000 0.000000 0.000000 0.000000 0.000000 10.000000 
R_front_hand01_02 0.000000 0.000000 0.000000 0.000000 0.000000 0.000000 10.000000 
R_front_hand02_02 0.000000 0.000000 0.000000 0.000000 0.000000 0.000000 10.000000 
R_front_hand03_02 0.000000 0.000000 0.000000 0.000000 0.000000 0.000000 10.000000 
null_rope01_connect 0.000000 0.000000 0.000000 0.000000 0.000000 0.000000 10.000000 
Rope1_Seg01 0.000000 0.000000 0.000000 0.000000 0.000000 0.000000 10.000000 
Rope1_Seg02 0.000000 0.000000 0.000000 0.000000 0.000000 0.000000 10.000000 
Rope1_Seg03 0.000000 0.000000 0.000000 0.000000 0.000000 0.000000 10.000000 
Rope1_Seg04 0.000000 0.000000 0.000000 0.000000 0.000000 0.000000 10.000000 
Rope1_Seg05 0.000000 0.000000 0.000000 0.000000 0.000000 0.000000 10.000000 
Rope1_Seg06 0.000000 0.000000 0.000000 0.000000 0.000000 0.000000 10.000000 
Rope1_Seg07 0.000000 0.000000 0.000000 0.000000 0.000000 0.000000 10.000000 
Rope1_Seg09 0.000000 0.000000 0.000000 0.000000 0.000000 0.000000 10.000000 
L_mid_hand01 0.000000 0.000000 0.000000 0.000000 0.000000 0.000000 10.000000 
L_mid_hand02 0.000000 0.000000 0.000000 0.000000 0.000000 0.000000 10.000000 
L_mid_hand03 0.000000 0.000000 0.000000 0.000000 0.000000 0.000000 10.000000 
null_rope02_connect 0.000000 0.000000 0.000000 0.000000 0.000000 0.000000 10.000000 
Rope2_Seg01 0.000000 0.000000 0.000000 0.000000 0.000000 0.000000 10.000000 
Rope2_Seg02 0.000000 0.000000 0.000000 0.000000 0.000000 0.000000 10.000000 
Rope2_Seg03 0.000000 0.000000 0.000000 0.000000 0.000000 0.000000 10.000000 
Rope2_Seg04 0.000000 0.000000 0.000000 0.000000 0.000000 0.000000 10.000000 
Rope2_Seg05 0.000000 0.000000 0.000000 0.000000 0.000000 0.000000 10.000000 
Rope2_Seg06 0.000000 0.000000 0.000000 0.000000 0.000000 0.000000 10.000000 
Rope2_Seg07 0.000000 0.000000 0.000000 0.000000 0.000000 0.000000 10.000000 
Rope2_Seg09 0.000000 0.000000 0.000000 0.000000 0.000000 0.000000 10.000000 
R_mid_hand01 0.000000 0.000000 0.000000 0.000000 0.000000 0.000000 10.000000 
R_mid_hand02 0.000000 0.000000 0.000000 0.000000 0.000000 0.000000 10.000000 
R_mid_hand03 0.000000 0.000000 0.000000 0.000000 0.000000 0.000000 10.000000 
spine02 0.000000 0.000000 0.000000 0.000000 0.000000 0.000000 10.000000 
spine03 0.000000 0.000000 0.000000 0.000000 0.000000 0.000000 10.000000 
pelvis 0.000000 0.000000 0.000000 0.000000 0.000000 0.000000 10.000000 
null_rope03_connect 0.000000 0.000000 0.000000 0.000000 0.000000 0.000000 10.000000 
null_rope04_connect 0.000000 0.000000 0.000000 0.000000 0.000000 0.000000 10.000000 
Rope3_Seg01 0.000000 0.000000 0.000000 0.000000 0.000000 0.000000 10.000000 
Rope3_Seg02 0.000000 0.000000 0.000000 0.000000 0.000000 0.000000 10.000000 
Rope3_Seg03 0.000000 0.000000 0.000000 0.000000 0.000000 0.000000 10.000000 
Rope3_Seg04 0.000000 0.000000 0.000000 0.000000 0.000000 0.000000 10.000000 
Rope3_Seg05 0.000000 0.000000 0.000000 0.000000 0.000000 0.000000 10.000000 
Rope3_Seg06 0.000000 0.000000 0.000000 0.000000 0.000000 0.000000 10.000000 
Rope3_Seg07 0.000000 0.000000 0.000000 0.000000 0.000000 0.000000 10.000000 
Rope3_Seg08 0.000000 0.000000 0.000000 0.000000 0.000000 0.000000 10.000000 
Rope3_Seg09 0.000000 0.000000 0.000000 0.000000 0.000000 0.000000 10.000000 
R_rear_hand01 0.000000 0.000000 0.000000 0.000000 0.000000 0.000000 10.000000 
R_rear_hand02 0.000000 0.000000 0.000000 0.000000 0.000000 0.000000 10.000000 
R_rear_hand03 0.000000 0.000000 0.000000 0.000000 0.000000 0.000000 10.000000 
Rope4_Seg01 0.000000 0.000000 0.000000 0.000000 0.000000 0.000000 10.000000 
Rope4_Seg02 0.000000 0.000000 0.000000 0.000000 0.000000 0.000000 10.000000 
Rope4_Seg03 0.000000 0.000000 0.000000 0.000000 0.000000 0.000000 10.000000 
Rope4_Seg04 0.000000 0.000000 0.000000 0.000000 0.000000 0.000000 10.000000 
Rope4_Seg05 0.000000 0.000000 0.000000 0.000000 0.000000 0.000000 10.000000 
Rope4_Seg06 0.000000 0.000000 0.000000 0.000000 0.000000 0.000000 10.000000 
Rope4_Seg07 0.000000 0.000000 0.000000 0.000000 0.000000 0.000000 10.000000 
Rope4_Seg08 0.000000 0.000000 0.000000 0.000000 0.000000 0.000000 10.000000 
Rope4_Seg09 0.000000 0.000000 0.000000 0.000000 0.000000 0.000000 10.000000 
L_rear_hand01 0.000000 0.000000 0.000000 0.000000 0.000000 0.000000 10.000000 
L_rear_hand02 0.000000 0.000000 0.000000 0.000000 0.000000 0.000000 10.000000 
L_rear_hand03 0.000000 0.000000 0.000000 0.000000 0.000000 0.000000 10.000000 
#Beginning of Data. Separated by tabs
#Fr	Tx	Ty	Tz	Rx	Ry	Rz	SF
[MASTER]
6 -0.000411 2751.335449 851.178101 0.001660 0.001660 0.001660 2879.991455
7 -0.000471 3171.295654 967.047424 0.001660 0.001660 0.001660 3315.463379
[root]
6 -20.962833 -8.660591 1459.648926 -87.908287 -19.588369 -92.404137 1459.825195
7 -22.612135 -12.662659 1463.837891 -86.655067 -22.221592 -93.370193 1464.067261
[chest]
6 -84.512650 -34.090519 0.000000 -1.571345 1.373652 -160.742203 91.129311
7 -84.512650 -34.090519 0.000000 -1.420289 1.557666 -156.771454 91.129311
[L_mid_tent01]
6 27.299200 22.179161 -249.918701 2.572925 0.685874 49.125160 252.381699
7 27.299215 22.179171 -249.918701 4.254442 -3.870871 47.699585 252.381699
[R_mid_tent01]
6 23.228794 24.509907 226.238495 164.244644 -4.117077 53.949081 228.744751
7 23.228794 24.509907 226.238495 163.648773 -0.901149 53.270836 228.744751
[spine01]
6 -0.361383 -0.195265 0.000000 0.002037 0.001166 30.407234 0.410763
7 -0.361383 -0.195265 0.000000 0.002050 0.001143 31.695620 0.410763
[Bip01_Neck]
6 165.484543 71.581718 0.000119 176.643677 -1.657967 43.431915 180.302734
7 165.484543 71.581718 0.000119 176.643677 -1.657967 43.431911 180.302734
[L_humerus]
6 -13.983130 -135.272980 -120.471481 -6.615113 65.460449 83.295097 181.680161
7 -13.983130 -135.272980 -120.471481 -6.736153 65.012352 83.155907 181.680161
[R_humerus]
6 -13.983309 -135.273102 125.287651 26.255243 -66.323738 69.444588 184.909012
7 -13.983309 -135.273102 125.287651 26.072714 -65.855179 69.635559 184.909012
[weapon_bone]
6 235.964890 -300.705902 0.000000 0.000000 -89.951546 -128.212341 382.234833
7 235.964890 -300.705902 0.000000 0.000000 -89.951546 -128.212341 382.234833
[Bip01_Head]
6 213.433228 185.747375 11.366807 4.987259 10.061256 -43.762226 283.169617
7 213.446350 185.710144 11.846600 4.985157 9.836426 -43.769676 283.174744
[eye_left_bone]
6 -24.626970 125.451866 -64.772606 0.000000 -90.000000 -99.840431 143.318359
7 -24.626970 125.451866 -64.772606 0.000000 -90.000000 -99.840431 143.318359
[eye_right_bone]
6 -24.626970 125.451866 64.327362 0.000000 -89.965736 80.156380 143.117676
7 -24.626970 125.451866 64.327362 0.000000 -89.965736 80.156380 143.117676
[L_forearm]
6 322.776093 0.000000 -0.000119 0.000419 -0.002309 -110.579201 322.776093
7 322.776093 0.000000 -0.000119 0.000422 -0.002309 -110.720451 322.776093
[L_front_hand]
6 241.149185 -0.042021 -3.300071 -178.667953 -1.835447 -27.422342 241.171753
7 241.149185 -0.042021 -3.300071 -178.667953 -1.835447 -27.422350 241.171753
[L_weapon_bone]
6 156.183838 0.000000 0.000000 0.000014 0.000007 0.000001 156.183838
7 156.183838 0.000000 0.000000 0.000014 0.000007 0.000001 156.183838
[L_front_hand01_01]
6 86.095154 20.947098 -0.655860 -0.349230 -0.490139 73.139862 88.609184
7 86.095154 20.947098 -0.655860 -0.335131 -0.500211 71.723785 88.609184
[L_front_hand02_01]
6 86.935165 -11.437475 24.513514 151.025055 -58.854893 -57.448074 91.046425
7 86.935165 -11.437475 24.513514 149.028946 -58.148323 -55.100948 91.046425
[L_front_hand03_01]
6 86.637497 -14.123976 -20.424902 -150.781433 57.074539 -58.996449 90.126129
7 86.637497 -14.123976 -20.424902 -148.918808 56.366669 -56.764694 90.126129
[L_front_hand01_02]
6 71.020905 -0.000179 0.000030 0.000318 -0.002326 -105.574486 71.020905
7 71.020905 -0.000179 0.000030 0.000317 -0.002326 -105.537254 71.020905
[L_front_hand02_02]
6 71.020927 -0.000119 0.000060 0.000318 -0.002326 -105.574486 71.020927
7 71.020927 -0.000119 0.000060 0.000317 -0.002326 -105.537254 71.020927
[L_front_hand03_02]
6 71.020905 -0.000060 0.000060 0.000318 -0.002326 -105.574486 71.020905
7 71.020905 -0.000060 0.000060 0.000317 -0.002326 -105.537254 71.020905
[R_forearm]
6 322.776428 -0.000060 0.000030 0.201428 0.067216 -109.231773 322.776428
7 322.776428 -0.000060 0.000030 0.201335 0.067493 -109.389412 322.776428
[R_front_hand]
6 238.847015 -0.006795 2.210259 -2.635298 -10.645461 -26.312506 238.857239
7 238.847015 -0.006795 2.210259 -2.635298 -10.645461 -26.312506 238.857239
[R_weapon_bone]
6 155.664093 0.002503 -0.000030 0.003487 0.001180 -90.988930 155.664078
7 155.664093 0.002503 -0.000030 0.003487 0.001180 -90.988930 155.664078
[R_front_hand01_01]
6 87.624611 14.231146 22.918642 -151.601074 -59.040489 58.224773 91.683487
7 87.624611 14.231146 22.918642 -149.707169 -58.394512 56.007454 91.683487
[R_front_hand02_01]
6 89.356956 14.367283 -19.491137 151.761566 57.399368 60.393955 92.579636
7 89.356956 14.367283 -19.491137 149.983459 56.758793 58.275940 92.579636
[R_front_hand03_01]
6 87.286232 -22.307278 -0.143439 0.146836 -0.431871 -73.769867 90.091743
7 87.286232 -22.307278 -0.143439 0.134949 -0.432464 -72.452232 90.091743
[R_front_hand01_02]
6 71.020905 0.000060 0.000119 0.002323 -0.000334 106.381721 71.020905
7 71.020905 0.000060 0.000119 0.002323 -0.000334 106.381714 71.020905
[R_front_hand02_02]
6 71.020844 -0.000030 -0.000119 0.002323 -0.000334 106.381721 71.020836
7 71.020844 -0.000030 -0.000119 0.002323 -0.000334 106.381714 71.020836
[R_front_hand03_02]
6 71.020905 0.000000 0.000030 0.002323 -0.000334 106.381721 71.020905
7 71.020905 0.000000 0.000030 0.002323 -0.000334 106.381714 71.020905
[null_rope01_connect]
6 328.732483 0.000000 -0.000238 -42.661579 -84.733551 103.176880 328.732483
7 328.732483 0.000000 -0.000238 -2.860597 -81.388428 67.476311 328.732483
[Rope1_Seg01]
6 -0.000034 -0.000067 0.000134 -34.124531 30.327761 -63.979748 0.000154
7 -0.000033 -0.000065 0.000131 -37.584389 31.679039 -69.100655 0.000150
[Rope1_Seg02]
6 139.999863 -0.000179 0.000000 0.200430 1.043033 -1.529794 139.999863
7 139.999863 -0.000179 0.000000 1.682443 -0.198437 -2.207406 139.999863
[Rope1_Seg03]
6 139.999924 0.000060 -0.000060 0.317877 1.035153 -1.682082 139.999924
7 139.999924 0.000060 -0.000060 2.344337 -0.897560 -2.237988 139.999924
[Rope1_Seg04]
6 139.999924 -0.000060 -0.000119 1.598961 -2.052579 -0.249601 139.999924
7 139.999924 -0.000060 -0.000119 4.490851 -4.128109 -1.755093 139.999924
[Rope1_Seg05]
6 139.999832 0.000119 -0.000060 -2.102825 7.183715 -5.931641 139.999832
7 139.999832 0.000119 -0.000060 -2.513379 7.226473 -5.720699 139.999832
[Rope1_Seg06]
6 139.999954 0.000119 -0.000060 -5.396702 8.600369 -5.470499 139.999954
7 139.999954 0.000119 -0.000060 -6.265523 7.717862 -3.827397 139.999954
[Rope1_Seg07]
6 139.999985 0.000060 0.000000 -2.893195 3.486136 -1.937611 139.999985
7 139.999985 0.000060 0.000000 -2.841015 2.989804 -1.418624 139.999985
[Rope1_Seg09]
6 121.602913 0.000119 -0.000089 -89.793175 -1.359789 0.847147 121.602913
7 121.602913 0.000119 -0.000089 -89.793175 -1.359789 0.847147 121.602913
[L_mid_hand01]
6 103.859421 1.038730 8.195221 112.493240 -49.600185 -18.031643 104.187431
7 103.859421 1.038730 8.195221 110.549706 -45.072773 -15.392938 104.187431
[L_mid_hand02]
6 105.572853 -4.139662 -10.864139 -152.303986 36.371010 -47.886745 106.211075
7 105.572853 -4.139662 -10.864139 -149.303925 33.991974 -42.687023 106.211075
[L_mid_hand03]
6 104.641464 17.579376 -3.913581 -12.027911 14.512395 53.523804 106.179977
7 104.641464 17.579376 -3.913581 -13.209491 13.449579 48.630810 106.179977
[null_rope02_connect]
6 328.732849 0.000179 -0.000119 -50.033440 76.308517 73.663063 328.732849
7 328.732849 0.000179 -0.000119 -33.970947 77.370445 86.858437 328.732849
[Rope2_Seg01]
6 0.000043 0.000134 0.000000 99.609909 29.760628 -128.418915 0.000141
7 0.000044 0.000131 0.000000 100.815689 27.674646 -124.408180 0.000138
[Rope2_Seg02]
6 139.999741 -0.000060 -0.000119 -0.347659 4.911442 -0.988461 139.999756
7 139.999741 -0.000060 -0.000119 -0.191237 4.896940 -1.848072 139.999756
[Rope2_Seg03]
6 140.000107 0.000030 0.000000 -0.968482 8.740876 -1.724192 140.000107
7 140.000107 0.000030 0.000000 -0.480800 8.069868 -3.042115 140.000107
[Rope2_Seg04]
6 139.999802 0.000000 -0.000060 -10.029135 31.243683 -7.918086 139.999802
7 139.999802 0.000000 -0.000060 0.680050 20.755442 -13.040936 139.999802
[Rope2_Seg05]
6 139.999985 -0.000060 0.000119 -24.189583 17.193834 2.070571 139.999985
7 139.999985 -0.000060 0.000119 -19.085897 16.460934 2.409956 139.999985
[Rope2_Seg06]
6 139.999893 -0.000030 -0.000119 15.605418 -16.768023 -3.200146 139.999893
7 139.999893 -0.000030 -0.000119 -11.338879 -6.875435 10.865279 139.999893
[Rope2_Seg07]
6 139.999893 0.000060 -0.000060 0.446412 -2.508791 0.699301 139.999893
7 139.999893 0.000060 -0.000060 -3.576188 -0.710041 3.205921 139.999893
[Rope2_Seg09]
6 121.338966 0.000089 -0.000060 33.793236 -1.359788 -0.847141 121.338966
7 121.338966 0.000089 -0.000060 33.793236 -1.359788 -0.847141 121.338966
[R_mid_hand01]
6 104.680779 11.144459 -10.335981 -25.740593 41.350704 56.606117 105.778534
7 104.680779 11.144459 -10.335981 -28.447895 39.731529 52.443096 105.778534
[R_mid_hand02]
6 104.070427 2.443552 8.231699 61.371151 -58.827457 25.571609 104.424065
7 104.070427 2.443552 8.231699 63.907383 -55.672989 22.555904 104.424065
[R_mid_hand03]
6 106.028137 -11.221827 -5.996406 -174.179749 14.727765 -65.439743 106.788818
7 106.028137 -11.221827 -5.996406 -173.262527 14.339042 -61.789948 106.788818
[spine02]
6 129.756927 0.001550 0.000119 0.478034 -4.031582 -14.589011 129.756927
7 129.756927 0.001550 0.000119 0.490683 -4.030020 -14.808994 129.756927
[spine03]
6 78.614113 0.081500 -4.899012 1.963992 3.798851 17.515518 78.766655
7 78.614120 0.081504 -4.899011 1.972745 3.793459 17.643412 78.766663
[pelvis]
6 169.435242 0.051022 0.000000 -0.068670 -0.178384 16.198400 169.435257
7 169.435242 0.051022 0.000000 -0.069105 -0.178216 16.478197 169.435257
[null_rope03_connect]
6 -1.257226 -2.466202 137.391083 -26.684145 -86.398476 86.805664 137.418976
7 -1.257226 -2.466202 137.391083 -24.401304 -85.212349 85.728600 137.418976
[null_rope04_connect]
6 -1.259640 -2.480268 -137.844437 -26.684145 -86.398476 86.805664 137.872513
7 -1.259640 -2.480268 -137.844437 -24.401304 -85.212349 85.728600 137.872513
[Rope3_Seg01]
6 -0.000037 0.000000 -0.000018 -150.473618 41.698547 -102.129944 0.000041
7 -0.000037 0.000000 -0.000022 -151.088974 40.854694 -103.718117 0.000043
[Rope3_Seg02]
6 139.999924 -0.000119 0.000060 1.221892 0.060337 -4.108680 139.999924
7 139.999924 -0.000119 0.000060 1.287666 -0.107507 -4.377826 139.999924
[Rope3_Seg03]
6 139.999924 -0.000119 0.000119 0.961699 -0.001266 -3.777670 139.999924
7 139.999924 -0.000119 0.000119 1.013315 -0.194400 -4.130768 139.999924
[Rope3_Seg04]
6 139.999924 0.000119 0.000000 0.699767 0.375307 -2.855018 139.999924
7 139.999924 0.000119 0.000000 0.645413 -0.187260 -3.353102 139.999924
[Rope3_Seg05]
6 139.999924 -0.000238 0.000060 0.713347 -0.425228 -3.760481 139.999924
7 139.999924 -0.000238 0.000060 0.749040 -0.299841 -3.838968 139.999924
[Rope3_Seg06]
6 139.999893 -0.000119 -0.000060 0.778745 -1.330426 -4.262032 139.999893
7 139.999893 -0.000119 -0.000060 0.944462 -0.457606 -4.325850 139.999893
[Rope3_Seg07]
6 139.999771 0.000060 -0.000119 0.705270 -1.081702 -3.250004 139.999771
7 139.999771 0.000060 -0.000119 0.837828 -0.461440 -3.662269 139.999771
[Rope3_Seg08]
6 139.999985 -0.000060 0.000000 0.635600 -0.605458 -2.019705 139.999985
7 139.999985 -0.000060 0.000000 0.695692 -0.315598 -2.334836 139.999985
[Rope3_Seg09]
6 90.185997 -0.000179 -0.000060 89.793228 -1.359877 -0.847183 90.185997
7 90.185997 -0.000179 -0.000060 89.793228 -1.359877 -0.847183 90.185997
[R_rear_hand01]
6 103.366196 -6.073594 -10.757982 -171.684540 23.302565 -59.125771 104.101845
7 103.366196 -6.073594 -10.757982 -169.896027 22.621880 -54.548431 104.101845
[R_rear_hand02]
6 100.509819 12.039542 -7.992327 -21.930750 32.777496 56.381863 101.543350
7 100.509819 12.039542 -7.992327 -24.381289 31.099262 51.752331 101.543350
[R_rear_hand03]
6 101.539970 5.215704 5.435467 79.009171 -58.663548 13.282337 101.819031
7 101.539970 5.215704 5.435467 80.187729 -54.464619 11.876325 101.819031
[Rope4_Seg01]
6 0.000010 0.000038 -0.000114 71.423950 26.762388 -54.198059 0.000121
7 0.000010 0.000038 -0.000114 65.754646 20.275602 -48.394489 0.000121
[Rope4_Seg02]
6 139.999985 0.000060 0.000119 5.921689 -10.100726 -11.326377 139.999985
7 139.999985 0.000060 0.000119 11.139979 -10.263651 -16.374039 139.999985
[Rope4_Seg03]
6 139.999924 0.000000 -0.000238 2.986809 -8.749636 -8.764138 139.999924
7 139.999924 0.000000 -0.000238 4.635291 -9.814212 -11.617073 139.999924
[Rope4_Seg04]
6 139.999985 0.000000 0.000119 2.549432 -7.223163 -9.766789 139.999985
7 139.999985 0.000000 0.000119 3.098872 -7.670876 -11.385646 139.999985
[Rope4_Seg05]
6 139.999802 -0.000060 -0.000119 0.132520 -3.973894 -1.774630 139.999802
7 139.999802 -0.000060 -0.000119 0.256062 -3.901719 -2.382541 139.999802
[Rope4_Seg06]
6 139.999924 0.000000 0.000060 -0.761828 -2.219727 4.652761 139.999924
7 139.999924 0.000000 0.000060 -0.541954 -2.247136 3.742752 139.999924
[Rope4_Seg07]
6 139.999802 0.000000 0.000000 -1.534041 -1.787246 9.047859 139.999802
7 139.999802 0.000000 0.000000 -1.553789 -1.845942 10.210681 139.999802
[Rope4_Seg08]
6 139.999924 0.000000 0.000119 -2.444988 -2.082406 4.415921 139.999924
7 139.999924 0.000000 0.000119 -2.783962 -2.325469 6.390103 139.999924
[Rope4_Seg09]
6 90.185791 0.000060 0.000060 -135.617828 2.228885 0.850567 90.185791
7 90.185791 0.000060 0.000060 -135.617828 2.228885 0.850567 90.185791
[L_rear_hand01]
6 101.696655 -8.392275 -7.654577 -30.719053 -24.879360 141.681381 102.329041
7 101.696655 -8.392275 -7.654577 -31.684452 -23.583008 144.025742 102.329041
[L_rear_hand02]
6 102.726799 -1.568258 5.773216 82.428497 41.230476 171.131027 102.900848
7 102.726799 -1.568258 5.773216 82.701553 38.753956 171.553619 102.900848
[L_rear_hand03]
6 104.552910 9.721220 -10.420293 -164.822937 -19.676035 -139.457687 105.519653
7 104.552910 9.721220 -10.420293 -163.975403 -19.004421 -142.009338 105.519653
